<svg xmlns="http://www.w3.org/2000/svg" xmlns:xlink="http://www.w3.org/1999/xlink" viewBox="0,0,256,256" width="64px" height="64px" fill-rule="nonzero"><g fill="#eae1e1" fill-rule="nonzero" stroke="none" stroke-width="1" stroke-linecap="butt" stroke-linejoin="miter" stroke-miterlimit="10" stroke-dasharray="" stroke-dashoffset="0" font-family="none" font-weight="none" font-size="none" text-anchor="none" style="mix-blend-mode: normal"><g transform="scale(3.55556,3.55556)"><path d="M36,12c14.921,0 27.06,9.869 27.06,22c0,12.131 -12.139,22 -27.06,22c-0.272,0 -0.547,-0.004 -0.827,-0.011c-7.242,5.125 -13.055,5.911 -13.725,5.986c-0.15,0.017 -0.3,0.025 -0.449,0.025c-1.372,0 -2.662,-0.707 -3.396,-1.891c-0.814,-1.312 -0.801,-2.976 0.034,-4.275c0.015,-0.023 1.058,-1.65 2.379,-4.056c-6.925,-4.089 -11.076,-10.617 -11.076,-17.778c0,-12.131 12.139,-22 27.06,-22zM38,42.994c0,-0.601 0,-6.399 0,-7c0,-1.104 -0.895,-2 -2,-2c-1.104,0 -2,0.896 -2,2c0,0.601 0,6.399 0,7c0,1.104 0.896,2 2,2c1.105,0 2,-0.896 2,-2zM36,30.203c1.657,0 3,-1.343 3,-3c0,-1.657 -1.343,-3 -3,-3c-1.657,0 -3,1.343 -3,3c0,1.657 1.343,3 3,3z"></path></g></g></svg>