<svg xmlns="http://www.w3.org/2000/svg" xmlns:xlink="http://www.w3.org/1999/xlink" viewBox="0,0,256,256" width="64px" height="64px" fill-rule="nonzero"><g fill="#f4eaea" fill-rule="nonzero" stroke="none" stroke-width="1" stroke-linecap="butt" stroke-linejoin="miter" stroke-miterlimit="10" stroke-dasharray="" stroke-dashoffset="0" font-family="none" font-weight="none" font-size="none" text-anchor="none" style="mix-blend-mode: normal"><g transform="scale(3.55556,3.55556)"><path d="M36,11.36719c-12.417,0 -21,7.09687 -21,19.42187v5.39453c0,0 -1,1.99941 -1,4.31641c0,3.102 2.94233,5.59061 4.73633,6.47461c2.046,8.532 11.86867,14.02539 17.26367,14.02539c5.395,0 15.21767,-5.49434 17.26367,-14.02734c1.794,-0.883 4.73633,-3.75151 4.73633,-6.85352c0,-2.317 -1,-3.93555 -1,-3.93555v-5.39453c0,-14.55 -10.92383,-15.36914 -10.92383,-15.36914c0,0 -3.08317,-4.05273 -10.07617,-4.05273zM44.32227,28.56641c2.186,1.857 2.78109,7.96459 3.24609,9.43359h2.43164v0.16211c0,0 1,0.52484 1,1.83984c0,1.591 -3.19141,2.86328 -3.19141,2.86328c-0.765,8.301 -9.30659,11.11914 -11.80859,11.11914c-2.502,0 -10.46992,-2.90114 -11.66992,-11.11914c0,0 -3.33008,-1.24898 -3.33008,-2.58398c0,-1.516 1,-2.19531 1,-2.19531v-0.08594h2.80664l1.65039,-4.30469c7.891,-0.118 14.82923,-2.26891 17.86523,-5.12891z"></path></g></g></svg>