<svg xmlns="http://www.w3.org/2000/svg" xmlns:xlink="http://www.w3.org/1999/xlink" viewBox="0,0,256,256" width="64px" height="64px" fill-rule="nonzero"><g fill="#ece2e2" fill-rule="nonzero" stroke="none" stroke-width="1" stroke-linecap="butt" stroke-linejoin="miter" stroke-miterlimit="10" stroke-dasharray="" stroke-dashoffset="0" font-family="none" font-weight="none" font-size="none" text-anchor="none" style="mix-blend-mode: normal"><g transform="scale(3.55556,3.55556)"><path d="M33,9c-3.314,0 -6,2.686 -6,6h-9c-4.418,0 -8,3.582 -8,8v4.1875c2.527,0.597 12.792,2.8125 26,2.8125c13.208,0 23.473,-2.2155 26,-2.8125v-4.1875c0,-4.418 -3.582,-8 -8,-8h-9c0,-3.314 -2.686,-6 -6,-6zM33,13h6c1.104,0 2,0.895 2,2h-10c0,-1.105 0.896,-2 2,-2zM10,34.26758v14.73242c0,4.418 3.582,8 8,8h36c4.418,0 8,-3.582 8,-8v-14.73242c-3.25,0.684 -11.845,2.29916 -22,2.66016v0.07227c0,1.105 -0.896,2 -2,2h-5c-1.104,0 -2,-0.895 -2,-2v-0.11328c-9.716,-0.426 -17.857,-1.95814 -21,-2.61914z"></path></g></g></svg>